# xmcd
#
# Track frame offsets: 
#        150
#        11990
#        29626
#        39764
#        58422
#        80922
#        98449
#        117785
#        132727
#        148331
#        163907
#        187953
#        204782
#        222554
#        236646
#        254429
#
# Disc length: 3645 seconds
#
# Revision: 0
# Processed by: cddbd v1.5.2PL0 Copyright (c) Steve Scherf et al.
# Submitted via: ExactAudioCopy v1.3
#
DISCID=f30e3b10
DTITLE=Various Artist - Take MeTo Town - Disc 1
DYEAR=2018
DGENRE=Country
TTITLE0=Mick Daley Versus The Wayshegoes - Woke Up Sad
TTITLE1=Adam Young - How To Fall
TTITLE2=Emilee South - My Baby (Don't Return My Calls)
TTITLE3=Dave Favours and the Roadside Ashes - There Goes The Neighbourho
TTITLE3=od
TTITLE4=Halfway - The Night Sky
TTITLE5=Charlie Horse - A Song For The Loneliness
TTITLE6=James Thomson and The Strange Pilgrims - Odds and Ends
TTITLE7=Belle Harvey - Crescent City
TTITLE8=The Heartache State - No Good Alone
TTITLE9=David Harnham and the Reasons To Live - Worst House In The Best 
TTITLE9=Street
TTITLE10=Tracy McNeil and The Goodlife - Paradise
TTITLE11=Hana and Jessie-Lee's Bad Habits - You Don't Know Lonely
TTITLE12=William Crighton - Riverina Kid
TTITLE13=Dan Brodie - I Ain't Got Nothing
TTITLE14=Chris Altmann - Way Back To You
TTITLE15=Spurs For Jesus feat Lo Carmen - Curtain Call
EXTD=
EXTT0=
EXTT1=
EXTT2=
EXTT3=
EXTT4=
EXTT5=
EXTT6=
EXTT7=
EXTT8=
EXTT9=
EXTT10=
EXTT11=
EXTT12=
EXTT13=
EXTT14=
EXTT15=
PLAYORDER=
